name rise42.5664peak47.7979fall81.9185.mot
datacolumns 19
datarows 35
range 11.55829200000000 11.61495400000000
endheader
time	ground_force1_vx	ground_force1_vy	ground_force1_vz	ground_force1_px	ground_force1_py	ground_force1_pz	ground_force2_vx	ground_force2_vy	ground_force2_vz	ground_force2_px	ground_force2_py	ground_force2_pz	ground_torque1_x	ground_torque1_y	ground_torque1_z	ground_torque2_x	ground_torque2_y	ground_torque2_z	
11.55829200000000	-6.31958100000000	40.16752800000000	-7.18388800000000	0.26932400000000	0.00000000000000	0.09741300000000	-41.79465400000000	783.61813299999994	-50.40061500000000	0.08315300000000	0.00000000000000	-0.07916400000000	0.00000000000000	-3.68843900000000	0.00000000000000	0.00000000000000	-13.69619600000000	0.00000000000000	
11.55995100000000	-7.00778900000000	47.03389100000000	-8.05303900000000	0.27473700000000	0.00000000000000	0.09847500000000	-42.12194000000000	781.41980400000000	-50.00342600000000	0.08269200000000	0.00000000000000	-0.07902500000000	0.00000000000000	-4.17796600000000	0.00000000000000	0.00000000000000	-13.62388600000000	0.00000000000000	
11.56161700000000	-7.59517300000000	53.97354400000000	-8.83299200000000	0.27953700000000	0.00000000000000	0.09944000000000	-42.46860300000000	779.10839099999998	-49.58119200000000	0.08222800000000	0.00000000000000	-0.07888100000000	0.00000000000000	-4.62722000000000	0.00000000000000	0.00000000000000	-13.55425800000000	0.00000000000000	
11.56328800000000	-8.06380600000000	60.89562400000000	-9.50438100000000	0.28382600000000	0.00000000000000	0.10032500000000	-42.83465300000000	776.68176800000003	-49.13409100000000	0.08176100000000	0.00000000000000	-0.07873400000000	0.00000000000000	-5.02509300000000	0.00000000000000	0.00000000000000	-13.48738500000000	0.00000000000000	
11.56495100000000	-8.40208000000000	67.73156299999999	-10.05440600000000	0.28768400000000	0.00000000000000	0.10114000000000	-43.21999900000000	774.13775399999997	-48.66234600000000	0.08129200000000	0.00000000000000	-0.07858200000000	0.00000000000000	-5.36399500000000	0.00000000000000	0.00000000000000	-13.42332100000000	0.00000000000000	
11.56662200000000	-8.60471400000000	74.43717500000000	-10.47690000000000	0.29117800000000	0.00000000000000	0.10189400000000	-43.62444700000000	771.47411399999999	-48.16623100000000	0.08082000000000	0.00000000000000	-0.07842600000000	0.00000000000000	-5.63995000000000	0.00000000000000	0.00000000000000	-13.36210300000000	0.00000000000000	
11.56829000000000	-8.67224900000000	80.99238300000000	-10.77184800000000	0.29436100000000	0.00000000000000	0.10259500000000	-44.04770100000000	768.68855900000005	-47.64606300000000	0.08034600000000	0.00000000000000	-0.07826600000000	0.00000000000000	-5.85237800000000	0.00000000000000	0.00000000000000	-13.30374800000000	0.00000000000000	
11.56995900000000	-8.61014400000000	87.39901800000000	-10.94447700000000	0.29727800000000	0.00000000000000	0.10325100000000	-44.48935400000000	765.77875900000004	-47.10220500000000	0.07987000000000	0.00000000000000	-0.07810200000000	0.00000000000000	-6.00363800000000	0.00000000000000	0.00000000000000	-13.24825500000000	0.00000000000000	
11.57162500000000	-8.42764600000000	93.67719099999999	-11.00407300000000	0.29996300000000	0.00000000000000	0.10386500000000	-44.94889000000000	762.74233700000002	-46.53506600000000	0.07939300000000	0.00000000000000	-0.07793400000000	0.00000000000000	-6.09840100000000	0.00000000000000	0.00000000000000	-13.19560200000000	0.00000000000000	
11.57328700000000	-8.13653400000000	99.86080000000000	-10.96268300000000	0.30244900000000	0.00000000000000	0.10444200000000	-45.42568100000000	759.57688299999995	-45.94509600000000	0.07891500000000	0.00000000000000	-0.07776100000000	0.00000000000000	-6.14295000000000	0.00000000000000	0.00000000000000	-13.14574700000000	0.00000000000000	
11.57495800000000	-7.74988600000000	105.99269000000000	-10.83380200000000	0.30475900000000	0.00000000000000	0.10498700000000	-45.91898800000000	756.27995699999997	-45.33279000000000	0.07843600000000	0.00000000000000	-0.07758400000000	0.00000000000000	-6.14445700000000	0.00000000000000	0.00000000000000	-13.09862900000000	0.00000000000000	
11.57662300000000	-7.28095900000000	112.11991600000000	-10.63118200000000	0.30691600000000	0.00000000000000	0.10550200000000	-46.42795600000000	752.84909600000003	-44.69868100000000	0.07795700000000	0.00000000000000	-0.07740300000000	0.00000000000000	-6.11032800000000	0.00000000000000	0.00000000000000	-13.05416500000000	0.00000000000000	
11.57829100000000	-6.74224200000000	118.28948200000001	-10.36782100000000	0.30893600000000	0.00000000000000	0.10599100000000	-46.95161800000000	749.28182200000003	-44.04334500000000	0.07747800000000	0.00000000000000	-0.07721800000000	0.00000000000000	-6.04762700000000	0.00000000000000	0.00000000000000	-13.01225400000000	0.00000000000000	
11.57995200000000	-6.14474300000000	124.54479499999999	-10.05518200000000	0.31083500000000	0.00000000000000	0.10645500000000	-47.48889400000000	745.57565099999999	-43.36739400000000	0.07700000000000	0.00000000000000	-0.07702900000000	0.00000000000000	-5.96263400000000	0.00000000000000	0.00000000000000	-12.97277100000000	0.00000000000000	
11.58162500000000	-5.49751900000000	130.92299299999999	-9.70267200000000	0.31262600000000	0.00000000000000	0.10689700000000	-48.03859000000000	741.72810200000004	-42.67147700000000	0.07652200000000	0.00000000000000	-0.07683600000000	0.00000000000000	-5.86054200000000	0.00000000000000	0.00000000000000	-12.93557400000000	0.00000000000000	
11.58328400000000	-4.80743000000000	137.45319100000000	-9.31736600000000	0.31431900000000	0.00000000000000	0.10731900000000	-48.59940100000000	737.73670600000003	-41.95628200000000	0.07604700000000	0.00000000000000	-0.07663900000000	0.00000000000000	-5.74528100000000	0.00000000000000	0.00000000000000	-12.90050000000000	0.00000000000000	
11.58495500000000	-4.07911600000000	144.15561700000001	-8.90395100000000	0.31592200000000	0.00000000000000	0.10772200000000	-49.16991400000000	733.59902099999999	-41.22252800000000	0.07557300000000	0.00000000000000	-0.07643800000000	0.00000000000000	-5.61947700000000	0.00000000000000	0.00000000000000	-12.86736700000000	0.00000000000000	
11.58662200000000	-3.31514300000000	151.04154199999999	-8.46486800000000	0.31744400000000	0.00000000000000	0.10810800000000	-49.74860600000000	729.31263700000000	-40.47096800000000	0.07510200000000	0.00000000000000	-0.07623300000000	0.00000000000000	-5.48451600000000	0.00000000000000	0.00000000000000	-12.83597300000000	0.00000000000000	
11.58828800000000	-2.51628900000000	158.11385999999999	-8.00059500000000	0.31889100000000	0.00000000000000	0.10847800000000	-50.33385100000000	724.87519699999996	-39.70238400000000	0.07463300000000	0.00000000000000	-0.07602400000000	0.00000000000000	-5.34068300000000	0.00000000000000	0.00000000000000	-12.80609900000000	0.00000000000000	
11.58995200000000	-1.68190400000000	165.36815799999999	-7.51002000000000	0.32026800000000	0.00000000000000	0.10883300000000	-50.92392100000000	720.28440499999999	-38.91759100000000	0.07416800000000	0.00000000000000	-0.07581100000000	0.00000000000000	-5.18737000000000	0.00000000000000	0.00000000000000	-12.77750800000000	0.00000000000000	
11.59162200000000	-0.81032900000000	172.79411099999999	-6.99087600000000	0.32157900000000	0.00000000000000	0.10917500000000	-51.51699100000000	715.53804300000002	-38.11742900000000	0.07370600000000	0.00000000000000	-0.07559500000000	0.00000000000000	-5.02330300000000	0.00000000000000	0.00000000000000	-12.74994600000000	0.00000000000000	
11.59328900000000	0.10069000000000	180.37702500000000	-6.44017700000000	0.32282800000000	0.00000000000000	0.10950300000000	-52.11114000000000	710.63398500000005	-37.30276400000000	0.07324800000000	0.00000000000000	-0.07537500000000	0.00000000000000	-4.84678300000000	0.00000000000000	0.00000000000000	-12.72314300000000	0.00000000000000	
11.59496700000000	1.05361100000000	188.09940300000000	-5.85463200000000	0.32401800000000	0.00000000000000	0.10981900000000	-52.70436100000000	705.57021799999995	-36.47448600000000	0.07279400000000	0.00000000000000	-0.07515100000000	0.00000000000000	-4.65592100000000	0.00000000000000	0.00000000000000	-12.69681400000000	0.00000000000000	
11.59662400000000	2.05075600000000	195.94239899999999	-5.23101300000000	0.32515000000000	0.00000000000000	0.11012400000000	-53.29455900000000	700.34485199999995	-35.63350700000000	0.07234400000000	0.00000000000000	-0.07492400000000	0.00000000000000	-4.44883300000000	0.00000000000000	0.00000000000000	-12.67066100000000	0.00000000000000	
11.59829300000000	3.09403800000000	203.88708800000001	-4.56644500000000	0.32622600000000	0.00000000000000	0.11041800000000	-53.87956300000000	694.95614300000000	-34.78075800000000	0.07189900000000	0.00000000000000	-0.07469400000000	0.00000000000000	-4.22381400000000	0.00000000000000	0.00000000000000	-12.64437200000000	0.00000000000000	
11.59995400000000	4.18476200000000	211.91548800000001	-3.85863300000000	0.32724900000000	0.00000000000000	0.11070100000000	-54.45712700000000	689.40250700000001	-33.91719000000000	0.07145800000000	0.00000000000000	-0.07446000000000	0.00000000000000	-3.97946100000000	0.00000000000000	0.00000000000000	-12.61762400000000	0.00000000000000	
11.60162000000000	5.32349700000000	220.01131100000001	-3.10599600000000	0.32821800000000	0.00000000000000	0.11097500000000	-55.02493800000000	683.68254000000002	-33.04376700000000	0.07102200000000	0.00000000000000	-0.07422300000000	0.00000000000000	-3.71475400000000	0.00000000000000	0.00000000000000	-12.59008500000000	0.00000000000000	
11.60329300000000	6.51002500000000	228.16043999999999	-2.30774200000000	0.32913400000000	0.00000000000000	0.11124000000000	-55.58062300000000	677.79503199999999	-32.16146900000000	0.07059100000000	0.00000000000000	-0.07398300000000	0.00000000000000	-3.42910200000000	0.00000000000000	0.00000000000000	-12.56141100000000	0.00000000000000	
11.60495400000000	7.74334200000000	236.35114999999999	-1.46386900000000	0.32999800000000	0.00000000000000	0.11149600000000	-56.12175800000000	671.73897999999997	-31.27128500000000	0.07016400000000	0.00000000000000	-0.07374000000000	0.00000000000000	-3.12234600000000	0.00000000000000	0.00000000000000	-12.53125500000000	0.00000000000000	
11.60662100000000	9.02171100000000	244.57411800000000	-0.57511700000000	0.33080900000000	0.00000000000000	0.11174400000000	-56.64587000000000	665.51360799999998	-30.37421800000000	0.06974200000000	0.00000000000000	-0.07349500000000	0.00000000000000	-2.79473600000000	0.00000000000000	0.00000000000000	-12.49925900000000	0.00000000000000	
11.60829100000000	10.34275400000000	252.82225199999999	0.35711500000000	0.33156700000000	0.00000000000000	0.11198400000000	-57.15045400000000	659.11837500000001	-29.47127500000000	0.06932400000000	0.00000000000000	-0.07324600000000	0.00000000000000	-2.44688900000000	0.00000000000000	0.00000000000000	-12.46506600000000	0.00000000000000	
11.60995700000000	11.70356000000000	261.09040099999999	1.33088500000000	0.33227200000000	0.00000000000000	0.11221600000000	-57.63297600000000	652.55298500000004	-28.56347200000000	0.06891000000000	0.00000000000000	-0.07299500000000	0.00000000000000	-2.07972300000000	0.00000000000000	0.00000000000000	-12.42831300000000	0.00000000000000	
11.61162600000000	13.10080700000000	269.37498099999999	2.34382500000000	0.33292300000000	0.00000000000000	0.11244000000000	-58.09088400000000	645.81739700000003	-27.65183000000000	0.06850000000000	0.00000000000000	-0.07274200000000	0.00000000000000	-1.69439600000000	0.00000000000000	0.00000000000000	-12.38864000000000	0.00000000000000	
11.61328600000000	14.53088300000000	277.67357500000003	3.39326900000000	0.33351900000000	0.00000000000000	0.11265800000000	-58.52162100000000	638.91182900000001	-26.73737300000000	0.06809300000000	0.00000000000000	-0.07248600000000	0.00000000000000	-1.29223600000000	0.00000000000000	0.00000000000000	-12.34568500000000	0.00000000000000	
11.61495400000000	15.98999700000000	285.98453499999999	4.47636400000000	0.33406000000000	0.00000000000000	0.11286800000000	-58.92263600000000	631.83676100000002	-25.82112800000000	0.06768900000000	0.00000000000000	-0.07222800000000	0.00000000000000	-0.87467500000000	0.00000000000000	0.00000000000000	-12.29909200000000	0.00000000000000	
